Coordinates
version=1
nRows=5
nColumns=107
inDegrees=yes

Units are S.I. units (second, meters, Newtons, ...)
If the header above contains a line with 'inDegrees', this indicates whether rotational values are in degrees (yes) or radians (no).

endheader
time	sternoclavicular_r2	sternoclavicular_r3	unrotscap_r3	unrotscap_r2	acromioclavicular_r2	acromioclavicular_r3	acromioclavicular_r1	unrothum_r1	unrothum_r3	unrothum_r2	elv_angle	shoulder_elv	shoulder1_r2	shoulder_rot	elbow_flexion	pro_sup	deviation	flexion	proximal_distal_r1	proximal_distal_r3	cmc_flexion	cmc_abduction	mp_flexion	ip_flexion	mcp2_flexion	mcp2_abduction	pm2_flexion	md2_flexion	mcp3_flexion	mcp3_abduction	pm3_flexion	md3_flexion	mcp4_flexion	mcp4_abduction	pm4_flexion	md4_flexion	mcp5_flexion	mcp5_abduction	pm5_flexion	md5_flexion	bicpt_tx	bicpt_ty	bicpt_tz	bicpt2_tx	bicpt2_ty	bicpt2_tz	ptpt_tx	ptpt_ty	ptpt_tz	FCUpt_tx	FCUpt_ty	FCUpt_tz	EDCpt_tx	EDCpt_ty	EDCpt_tz	APLpt_tx	APLpt_ty	APLpt_tz	FPLpt_tx	FPLpt_ty	FPLpt_tz	FPLpt2_tx	FPLpt2_ty	FPLpt2_tz	PEC1pt2_tx	PEC1pt2_ty	PEC1pt2_tz	PEC1pt3_tx	PEC1pt3_ty	PEC1pt3_tz	PEC2pt2_tx	PEC2pt2_ty	PEC2pt2_tz	PEC2pt3_tx	PEC2pt3_ty	PEC2pt3_tz	PEC3pt2_tx	PEC3pt2_ty	PEC3pt2_tz	PEC3pt3_tx	PEC3pt3_ty	PEC3pt3_tz	DELT2pt2a_tx	DELT2pt2a_ty	DELT2pt2a_tz	DELT2pt2_tx	DELT2pt2_ty	DELT2pt2_tz	LAT1pt2_tx	LAT1pt2_ty	LAT1pt2_tz	LAT1pt3_tx	LAT1pt3_ty	LAT1pt3_tz	LAT2pt2_tx	LAT2pt2_ty	LAT2pt2_tz	LAT2pt3_tx	LAT2pt3_ty	LAT2pt3_tz	LAT3pt2_tx	LAT3pt2_ty	LAT3pt2_tz	LAT3pt3_tx	LAT3pt3_ty	LAT3pt3_tz
      0.00000000	     -0.32547293	      0.13785497	     -0.13785497	      0.32547293	     -0.06590165	      0.53259393	      0.23939731	     -0.23939731	     -0.53259393	      0.06590165	     97.71566333	     77.05860827	     -1.70546006	    -19.16934462	     29.13216016	     38.02596064	      0.18019430	     -1.06811448	      0.21797216	     -0.53405724	     13.12718963	      1.17924960	    -36.15011576	    -52.71377216	     74.09400784	     13.95794940	     84.69581100	     96.74337533	     87.11568583	      5.38754852	     84.88129129	     64.45331958	     83.77865415	    -12.63339674	     84.74932278	     82.99643479	    105.10889560	    -14.34589266	     62.25246847	      5.75622289	      0.00086360	     -0.03093899	     -0.00483782	      0.01656627	     -0.01811389	     -0.00767803	      0.00474031	     -0.06671679	     -0.00311320	      0.00758209	     -0.18353558	     -0.00037094	     -0.00456310	      0.00130054	      0.00015954	      0.00013741	      0.00005496	      0.00027482	      0.00017588	      0.00052765	      0.00029680	      0.00002765	     -0.00023245	     -0.00027893	      0.00252581	      0.00886175	      0.00616469	     -0.00826240	      0.01994963	     -0.01892219	      0.00252581	      0.00886175	      0.00616469	      0.00055653	      0.01849408	     -0.00971795	      0.00398155	      0.00492791	      0.01604921	      0.00000000	      0.00794262	      0.00000000	     -0.00723495	     -0.03343490	     -0.00654995	      0.01329231	     -0.00040656	     -0.00301531	     -0.00089902	      0.01506925	     -0.00616469	      0.00248300	      0.02174767	     -0.01798036	     -0.00603626	      0.01305716	     -0.00552254	     -0.01258625	      0.02756988	     -0.03086628	     -0.02363133	      0.01459834	     -0.00740619	     -0.01566860	      0.03185092	     -0.03857215
      0.03333333	     -0.32542452	      0.13783447	     -0.13783447	      0.32542452	     -0.06589184	      0.53251471	      0.23936170	     -0.23936170	     -0.53251471	      0.06589184	     97.85468867	     77.04714673	     -1.70788651	    -19.23938043	     28.90386084	     37.70410599	      0.18799329	     -1.06472357	      0.22620671	     -0.53236179	     12.11556929	      1.19026030	    -35.87958974	    -51.36651774	     75.22792776	     13.91725817	     84.90134930	     95.21683845	     86.90894609	      5.38517608	     84.25327985	     61.12741805	     85.25448056	    -12.38260041	     84.57941187	     82.55656555	    104.28218226	    -14.34201907	     65.82034841	      5.76507253	      0.00085605	     -0.03091282	     -0.00483361	      0.01656410	     -0.01805188	     -0.00771143	      0.00476409	     -0.06670141	     -0.00308727	      0.00754990	     -0.18354208	     -0.00036814	     -0.00452448	      0.00128766	      0.00016148	      0.00014000	      0.00005600	      0.00028000	      0.00017920	      0.00053760	      0.00030240	      0.00002951	     -0.00022134	     -0.00026561	      0.00252544	      0.00886043	      0.00616378	     -0.00826117	      0.01994667	     -0.01891937	      0.00252544	      0.00886043	      0.00616378	      0.00055645	      0.01849133	     -0.00971651	      0.00398112	      0.00492717	      0.01604817	      0.00000000	      0.00794024	      0.00000000	     -0.00723388	     -0.03342993	     -0.00654798	      0.01333348	     -0.00040869	     -0.00303873	     -0.00089888	      0.01506701	     -0.00616378	      0.00248263	      0.02174444	     -0.01797768	     -0.00603536	      0.01305522	     -0.00552172	     -0.01258438	      0.02756578	     -0.03086169	     -0.02362781	      0.01459617	     -0.00740509	     -0.01566627	      0.03184618	     -0.03856641
      0.06666667	     -0.32547285	      0.13785494	     -0.13785494	      0.32547285	     -0.06590163	      0.53259381	      0.23939725	     -0.23939725	     -0.53259381	      0.06590163	     97.86618135	     77.05859133	     -1.70808709	    -19.23008845	     28.87410750	     37.68834841	      0.18805460	     -1.06275139	      0.22627080	     -0.53137570	     11.27255221	      0.95477298	    -35.66961940	    -51.16364912	     75.51041591	     13.87655171	     85.11507531	     95.19981381	     86.43467518	      5.10445683	     83.63868097	     60.73513191	     88.03122173	    -12.17324371	     84.61328375	     81.28330169	    104.31939990	    -14.33281493	     66.27465166	      5.84016256	      0.00085507	     -0.03090941	     -0.00483306	      0.01656399	     -0.01804379	     -0.00771307	      0.00476526	     -0.06670066	     -0.00308600	      0.00754833	     -0.18354240	     -0.00036800	     -0.00452259	      0.00128703	      0.00016157	      0.00014149	      0.00005660	      0.00028298	      0.00018111	      0.00054333	      0.00030562	      0.00003090	     -0.00021123	     -0.00025348	      0.00252581	      0.00886175	      0.00616469	     -0.00826240	      0.01994963	     -0.01892218	      0.00252581	      0.00886175	      0.00616469	      0.00055653	      0.01849408	     -0.00971795	      0.00398155	      0.00492790	      0.01604921	      0.00000000	      0.00794261	      0.00000000	     -0.00723495	     -0.03343489	     -0.00654994	      0.01332819	     -0.00040840	     -0.00303542	     -0.00089902	      0.01506925	     -0.00616469	      0.00248300	      0.02174767	     -0.01798035	     -0.00603626	      0.01305716	     -0.00552254	     -0.01258625	      0.02756987	     -0.03086627	     -0.02363132	      0.01459833	     -0.00740619	     -0.01566859	      0.03185091	     -0.03857214
      0.10000000	     -0.32627126	      0.13819311	     -0.13819311	      0.32627126	     -0.06606329	      0.53390030	      0.23998451	     -0.23998451	     -0.53390030	      0.06606329	     97.81101444	     77.24762187	     -1.70712425	    -18.25159816	     28.62817573	     36.48608343	      0.20553464	     -1.05301834	      0.24436280	     -0.52650917	     10.94994033	      1.12849171	    -35.36213420	    -50.69437142	     76.67036227	     13.87096354	     85.13339817	     94.87500813	     86.72660694	      5.47119122	     83.18358482	     55.52937730	     89.85867146	    -12.12482624	     84.74436251	     65.07923293	    103.98080333	    -14.32522772	     68.20991638	      5.80352912	      0.00084693	     -0.03088123	     -0.00482852	      0.01655372	     -0.01797698	     -0.00783649	      0.00485409	     -0.06664322	     -0.00298915	      0.00742837	     -0.18356641	     -0.00035683	     -0.00437832	      0.00123921	      0.00016830	      0.00014878	      0.00005951	      0.00029756	      0.00019044	      0.00057131	      0.00032136	      0.00003139	     -0.00020714	     -0.00024857	      0.00253201	      0.00888348	      0.00617981	     -0.00828267	      0.01999857	     -0.01896860	      0.00253201	      0.00888348	      0.00617981	      0.00055790	      0.01853944	     -0.00974179	      0.00398863	      0.00493999	      0.01606626	      0.00000000	      0.00798191	      0.00000000	     -0.00725270	     -0.03351691	     -0.00658257	      0.01274691	     -0.00037885	     -0.00271569	     -0.00090122	      0.01510621	     -0.00617981	      0.00248909	      0.02180101	     -0.01802446	     -0.00605107	      0.01308919	     -0.00553608	     -0.01261712	      0.02763751	     -0.03094199	     -0.02368929	      0.01463415	     -0.00742436	     -0.01570703	      0.03192904	     -0.03866676
      0.13333333	     -0.32614395	      0.13813919	     -0.13813919	      0.32614395	     -0.06603752	      0.53369198	      0.23989087	     -0.23989087	     -0.53369198	      0.06603752	     97.80062329	     77.21747994	     -1.70694289	    -18.24882467	     28.62171499	     36.48598679	      0.20552910	     -1.05301330	      0.24435637	     -0.52650665	     10.94823306	      1.12787066	    -35.36242800	    -50.69430398	     76.67052830	     13.87080786	     85.13369715	     94.87511216	     86.72541746	      5.47129467	     83.18293434	     55.52913427	     89.86578134	    -12.12550250	     84.74235411	     65.07740980	    103.98111843	    -14.32476208	     68.21049774	      5.80366791	      0.00084672	     -0.03088049	     -0.00482840	      0.01655372	     -0.01797523	     -0.00783650	      0.00485410	     -0.06664322	     -0.00298914	      0.00742836	     -0.18356641	     -0.00035682	     -0.00437831	      0.00123920	      0.00016830	      0.00014878	      0.00005951	      0.00029756	      0.00019044	      0.00057132	      0.00032137	      0.00003139	     -0.00020712	     -0.00024854	      0.00253102	      0.00888002	      0.00617740	     -0.00827944	      0.01999076	     -0.01896120	      0.00253102	      0.00888002	      0.00617740	      0.00055768	      0.01853221	     -0.00973799	      0.00398750	      0.00493807	      0.01606354	      0.00000000	      0.00797564	      0.00000000	     -0.00724987	     -0.03350383	     -0.00657736	      0.01274522	     -0.00037877	     -0.00271483	     -0.00090087	      0.01510032	     -0.00617740	      0.00248812	      0.02179251	     -0.01801743	     -0.00604871	      0.01308408	     -0.00553392	     -0.01261220	      0.02762672	     -0.03092992	     -0.02368005	      0.01462843	     -0.00742146	     -0.01570090	      0.03191659	     -0.03865167
